<?xml version="1.0" encoding="utf-8"?>
<!-- Generator: Adobe Illustrator 16.0.0, SVG Export Plug-In . SVG Version: 6.00 Build 0)  -->
<!DOCTYPE svg PUBLIC "-//W3C//DTD SVG 1.1//EN" "http://www.w3.org/Graphics/SVG/1.1/DTD/svg11.dtd">
<svg version="1.1" id="Layer_1" xmlns="http://www.w3.org/2000/svg" xmlns:xlink="http://www.w3.org/1999/xlink" x="0px" y="0px"
	 width="1520px" height="80px" viewBox="0 0 1520 80" enable-background="new 0 0 1520 80" xml:space="preserve">
<g id="Layer_1_1_">
	<rect y="57" fill="#FFFFFF" width="80" height="12"/>
	<rect y="34" fill="#FFFFFF" width="80" height="12"/>
	<rect x="80" y="11" fill="#FFFFFF" width="80" height="12"/>
	<rect x="80" y="57" fill="#FFFFFF" width="80" height="12"/>
	<rect x="80" y="42" fill="#FFFFFF" width="80" height="6"/>
	<rect x="80" y="32" fill="#FFFFFF" width="80" height="6"/>
	<rect x="160" y="11" fill="#FFFFFF" width="80" height="12"/>
	<rect x="160" y="57" fill="#FFFFFF" width="80" height="12"/>
	<rect x="160" y="44" fill="#FFFFFF" width="80" height="6"/>
	<rect x="160" y="30" fill="#FFFFFF" width="80" height="6"/>
	<rect x="240" y="11" fill="#FFFFFF" width="80" height="12"/>
	<rect x="240" y="57" fill="#FFFFFF" width="80" height="12"/>
	<rect x="240" y="46" fill="#FFFFFF" width="80" height="6"/>
	<rect x="240" y="28" fill="#FFFFFF" width="80" height="6"/>
	<rect x="320" y="11" fill="#FFFFFF" width="80" height="12"/>
	<rect x="320" y="57" fill="#FFFFFF" width="80" height="12"/>
	<rect x="320" y="48" fill="#FFFFFF" width="80" height="6"/>
	<rect x="320" y="26" fill="#FFFFFF" width="80" height="6"/>
	<rect x="400" y="11" fill="#FFFFFF" width="80" height="12"/>
	<rect x="400" y="57" fill="#FFFFFF" width="80" height="12"/>
	<rect x="400" y="50" fill="#FFFFFF" width="80" height="6"/>
	<rect x="400" y="24" fill="#FFFFFF" width="80" height="6"/>
	<rect x="480" y="11" fill="#FFFFFF" width="80" height="12"/>
	<rect x="480" y="57" fill="#FFFFFF" width="80" height="12"/>
	<rect x="480" y="52" fill="#FFFFFF" width="80" height="6"/>
	<rect x="480" y="22" fill="#FFFFFF" width="80" height="6"/>
	<rect x="560" y="11" fill="#FFFFFF" width="80" height="12"/>
	<rect x="560" y="57" fill="#FFFFFF" width="80" height="12"/>
	<rect x="560" y="54" fill="#FFFFFF" width="80" height="6"/>
	<rect x="560" y="20" fill="#FFFFFF" width="80" height="6"/>
	<rect x="640" y="11" fill="#FFFFFF" width="80" height="12"/>
	<rect x="640" y="57" fill="#FFFFFF" width="80" height="12"/>
	<rect x="640" y="56" fill="#FFFFFF" width="80" height="6"/>
	<rect x="640" y="18" fill="#FFFFFF" width="80" height="6"/>
	<rect x="720" y="8.999" fill="#FFFFFF" width="80" height="12.001"/>
	<rect x="720" y="59" fill="#FFFFFF" width="80" height="12"/>
	<rect y="11" fill="#FFFFFF" width="80" height="12"/>
	
		<rect x="798.992" y="61.013" transform="matrix(-0.9848 -0.1737 0.1737 -0.9848 1653.5908 278.735)" fill="#FFFFFF" width="80" height="12.001"/>
	
		<rect x="798.994" y="7.002" transform="matrix(-0.9848 0.1736 -0.1736 -0.9848 1667.4996 -119.8477)" fill="#FFFFFF" width="79.995" height="12"/>
	
		<rect x="879.995" y="54.719" transform="matrix(-0.9397 -0.342 0.342 -0.9397 1763.7469 432.4178)" fill="#FFFFFF" width="80" height="11.999"/>
	
		<rect x="880" y="13.303" transform="matrix(-0.9397 0.342 -0.342 -0.9397 1791.1252 -277.1992)" fill="#FFFFFF" width="80.001" height="12"/>
	<polygon fill="#FFFFFF" points="1033.11,79.982 959.324,37.397 965.712,26.333 1039.5,68.919 	"/>
	
		<rect x="1429.913" y="34.09" transform="matrix(-0.7071 -0.7071 0.7071 -0.7071 2499.0498 1115.309)" fill="#FFFFFF" width="101.196" height="11.999"/>
	
		<rect x="1430.128" y="34.086" transform="matrix(-0.7071 0.7071 -0.7071 -0.7071 2555.8379 -978.5012)" fill="#FFFFFF" width="100.895" height="11.999"/>
	<polygon fill="#FFFFFF" points="959.488,42.689 1033.125,0 1039.5,11.091 965.864,53.781 	"/>
	<polygon fill="#FFFFFF" points="1043.354,24.937 1120.342,70.406 1116.814,80.404 1039.827,34.935 	"/>
	<polygon fill="#FFFFFF" points="1039.966,42.341 1116.743,-0.103 1120.493,9.633 1043.717,52.077 	"/>
</g>
<g id="Layer_2">
	<g id="Layer_3">
	</g>
	
		<rect x="1349.587" y="34.084" transform="matrix(-0.7071 -0.7071 0.7071 -0.7071 2361.9248 1058.5032)" fill="#FFFFFF" width="101.196" height="11.999"/>
	
		<rect x="1349.786" y="34.079" transform="matrix(-0.7071 0.7071 -0.7071 -0.7071 2418.6921 -921.6926)" fill="#FFFFFF" width="100.896" height="11.999"/>
	<polygon fill="#FFFFFF" points="1287.537,6.303 1359.63,71.502 1352.554,80.6 1280.461,15.401 	"/>
	<polygon fill="#FFFFFF" points="1281.098,66.518 1352.98,0.01 1360.027,9.283 1288.143,75.789 	"/>
	<polygon fill="#FFFFFF" points="1206.752,12.459 1280.025,71.012 1274.237,80.508 1200.962,21.955 	"/>
	<polygon fill="#FFFFFF" points="1200.962,55.58 1273.968,0 1279.867,9.18 1206.859,64.762 	"/>
	<polygon fill="#FFFFFF" points="1125.332,17.818 1200.75,70.061 1196.104,79.896 1120.686,27.654 	"/>
	<polygon fill="#FFFFFF" points="1120.913,49.42 1195.775,0.116 1200.555,9.645 1125.691,58.95 	"/>
</g>
</svg>
